#!OML:ASF \\sashay\E\basketball\basketball\Project 1\Capture day 1\Session 1\Subject.ASF
:FULLY-SPECIFIED
:DEGREES
75
root -4.95692 15.6115 4.64125 192.286 70.1864 -171.812
lowerback 18.3703 -0.95189 -0.600401
upperback 10.0421 -0.452688 -0.550398
thorax 0.48189 0.134856 -0.158941
lowerneck -3.11894 5.89443 -8.18633
upperneck 8.05013 7.82764 9.13637
head 2.18879 4.01998 4.25702
rclavicle -5.56597e-015 1.94809e-014
rhumerus 14.2433 20.4758 -80.5233
rradius 106.536
rwrist -26.9554
rhand -22.3685 39.7894
rfingers 7.12502
rthumb 4.05289 9.84825
lclavicle -5.56597e-015 1.94809e-014
lhumerus 27.3531 -26.037 58.3312
lradius 106.355
lwrist 35.3593
lhand -21.9388 30.0499
lfingers 7.12502
lthumb 4.46785 59.9828
rfemur -40.9961 -1.70829 16.5886
rtibia 40.3732
rfoot -5.81123 -4.81332
rtoes -47.8796
lfemur -19.098 23.2474 -20.3327
ltibia 44.7306
lfoot -23.0954 4.67328
ltoes -21.1094
76
root -5.11152 15.6544 4.6185 194.226 71.9035 -170.153
lowerback 18.3034 -0.848677 -1.2004
upperback 10.1196 -0.417088 -0.389857
thorax 0.610232 0.117669 0.342765
lowerneck -2.90686 6.3819 -8.49942
upperneck 7.53397 8.55914 8.10413
head 2.19768 4.31139 4.41182
rclavicle -5.08889e-014 4.45278e-014
rhumerus 14.139 20.7013 -79.9301
rradius 106.832
rwrist -27.0272
rhand -22.3129 41.4392
rfingers 7.12502
rthumb 4.10665 11.499
lclavicle -5.08889e-014 4.45278e-014
lhumerus 28.0563 -25.7481 57.6045
lradius 106.343
lwrist 35.6343
lhand -21.9292 30.2414
lfingers 7.12502
lthumb 4.47712 60.1741
rfemur -41.156 -2.90337 17.6787
rtibia 42.9048
rfoot -5.34111 -5.88565
rtoes -47.8052
lfemur -19.7646 24.1932 -20.8197
ltibia 44.2663
lfoot -22.8668 5.45589
ltoes -20.4486
77
root -5.25925 15.6979 4.59342 195.406 73.5882 -169.274
lowerback 18.0716 -0.770268 -2.12826
upperback 10.3413 -0.441592 -0.258877
thorax 0.987578 0.058782 1.00808
lowerneck -3.0029 6.78341 -9.21606
upperneck 7.22764 9.15913 7.64961
head 2.04664 4.57291 4.37515
rclavicle -7.35503e-014 5.56597e-015
rhumerus 14.2685 21.0995 -79.1803
rradius 107.191
rwrist -27.2499
rhand -22.6725 42.2765
rfingers 7.12502
rthumb 3.75934 12.3299
lclavicle -7.35503e-014 5.56597e-015
lhumerus 28.7812 -25.2953 57.1607
lradius 106.265
lwrist 35.7377
lhand -21.7391 30.3977
lfingers 7.12502
lthumb 4.66072 60.3264
rfemur -41.2116 -3.972 18.1724
rtibia 45.5735
rfoot -4.99014 -6.56814
rtoes -47.2017
lfemur -20.3167 24.8297 -21.6081
ltibia 43.749
lfoot -22.7577 6.11488
ltoes -18.5589
78
root -5.40725 15.7319 4.57261 198.095 75.1998 -166.975
lowerback 17.8055 -0.686246 -2.70371
upperback 10.4851 -0.413177 -0.100188
thorax 1.2925 0.0332977 1.49421
lowerneck -3.1556 7.01814 -9.74372
upperneck 6.90027 9.53201 7.19231
head 1.9287 4.73117 4.30516
rclavicle -3.4191e-014 7.95139e-015
rhumerus 14.45 21.4616 -78.4789
rradius 107.537
rwrist -27.3621
rhand -23.4139 42.4832
rfingers 7.12502
rthumb 3.04339 12.5251
lclavicle -3.4191e-014 7.95139e-015
lhumerus 29.5601 -24.9282 56.7718
lradius 106.167
lwrist 35.6383
lhand -21.5669 30.6257
lfingers 7.12502
lthumb 4.82694 60.5507
rfemur -41.4178 -4.75325 18.8358
rtibia 48.3259
rfoot -4.79116 -6.97467
rtoes -46.4112
lfemur -21.0553 25.3049 -22.0697
ltibia 43.1993
lfoot -22.5208 6.79076
ltoes -16.7586
79
root -5.54842 15.7659 4.54848 200.564 76.6109 -164.803
lowerback 17.7507 -0.635779 -3.183
upperback 10.5369 -0.424022 -0.0323947
thorax 1.38932 -0.00348642 1.83746
lowerneck -3.27495 7.26621 -10.1979
upperneck 6.67273 9.91249 6.83174
head 1.83596 4.89959 4.25712
rclavicle -2.0276e-014 -1.11319e-014
rhumerus 14.1847 21.5957 -78.0567
rradius 107.988
rwrist -27.4472
rhand -23.6933 43.0596
rfingers 7.12502
rthumb 2.77352 13.0979
lclavicle -2.0276e-014 -1.11319e-014
lhumerus 30.2202 -24.7626 56.5009
lradius 106.083
lwrist 35.5114
lhand -21.3495 30.8941
lfingers 7.12502
lthumb 5.03689 60.8142
rfemur -41.3454 -5.62718 19.1752
rtibia 51.0861
rfoot -5.02053 -6.94518
rtoes -44.3792
lfemur -21.6534 25.6928 -22.5339
ltibia 42.685
lfoot -22.2727 7.38497
ltoes -16.1198
80
root -5.68139 15.7937 4.52113 202.819 77.9935 -162.747
lowerback 17.8103 -0.519565 -3.62683
upperback 10.4771 -0.3594 -0.0858759
thorax 1.3002 0.00429539 2.02118
lowerneck -2.93408 7.58125 -10.241
upperneck 6.23836 10.3302 6.1856
head 1.62287 5.08933 3.99752
rclavicle 1.43125e-014 2.3059e-014
rhumerus 13.3546 21.5439 -77.9017
rradius 108.614
rwrist -27.7275
rhand -23.1803 44.1461
rfingers 7.12502
rthumb 3.26901 14.1914
lclavicle 1.43125e-014 2.3059e-014
lhumerus 30.6844 -25.015 56.3626
lradius 106.004
lwrist 35.5757
lhand -21.4331 30.809
lfingers 7.12502
lthumb 4.95616 60.7311
rfemur -40.9774 -6.35853 19.147
rtibia 53.7866
rfoot -5.43839 -6.78896
rtoes -42.7583
lfemur -22.0912 26.1337 -23.0248
ltibia 42.2311
lfoot -22.1768 7.77145
ltoes -15.2674
81
root -5.81582 15.8074 4.49468 206.141 79.4352 -159.647
lowerback 17.7309 -0.41171 -4.01452
upperback 10.4321 -0.294527 -0.150668
thorax 1.29645 0.0126961 2.16053
lowerneck -2.54931 7.55957 -10.2773
upperneck 5.79845 10.2764 5.88713
head 1.42721 5.05756 3.86196
rclavicle -5.96354e-015 1.19271e-014
rhumerus 12.7476 21.7222 -77.6505
rradius 109.186
rwrist -27.7603
rhand -23.2884 44.6527
rfingers 7.12502
rthumb 3.16455 14.6965
lclavicle -5.96354e-015 1.19271e-014
lhumerus 30.866 -25.2802 56.3524
lradius 106.104
lwrist 35.7751
lhand -21.9508 30.4676
lfingers 7.12502
lthumb 4.45629 60.4007
rfemur -40.5824 -6.77577 19.0074
rtibia 56.3754
rfoot -5.65469 -6.64476
rtoes -42.7456
lfemur -22.5816 26.5259 -23.4555
ltibia 41.7853
lfoot -22.0966 8.16972
ltoes -14.022
82
root -5.94859 15.8251 4.46651 208.641 80.8885 -157.377
lowerback 17.5479 -0.323913 -4.7304
upperback 10.4993 -0.280895 -0.175743
thorax 1.48073 -0.0218756 2.53481
lowerneck -2.60524 7.73365 -10.6467
upperneck 5.49524 10.5414 5.50647
head 1.31682 5.1772 3.78592
rclavicle 5.56597e-015 2.62396e-014
rhumerus 12.3607 22.0052 -77.182
rradius 109.757
rwrist -27.5985
rhand -23.8855 44.8332
rfingers 7.12502
rthumb 2.58792 14.8691
lclavicle 5.56597e-015 2.62396e-014
lhumerus 31.076 -25.388 56.5902
lradius 106.313
lwrist 35.9179
lhand -22.4461 30.345
lfingers 7.12502
lthumb 3.97797 60.2876
rfemur -40.0759 -7.25031 18.3953
rtibia 58.8207
rfoot -5.88002 -6.36636
rtoes -43.0666
lfemur -23.004 26.8093 -24.1764
ltibia 41.2889
lfoot -21.9652 8.50995
ltoes -12.9002
83
root -6.07186 15.8481 4.43676 211.886 82.2753 -154.302
lowerback 17.8399 -0.213055 -5.26426
upperback 10.1898 -0.279064 -0.30063
thorax 1.00676 -0.0394635 2.70462
lowerneck -2.47002 7.97889 -11.1296
upperneck 5.48565 10.8738 5.44474
head 1.23858 5.33035 3.83727
rclavicle 6.36111e-015 2.3059e-014
rhumerus 11.1095 22.1328 -77.2472
rradius 110.439
rwrist -27.6031
rhand -23.6396 45.8754
rfingers 7.12502
rthumb 2.82546 15.9143
lclavicle 6.36111e-015 2.3059e-014
lhumerus 30.8058 -25.9452 56.9684
lradius 106.529
lwrist 36.0709
lhand -22.8569 30.3129
lfingers 7.12502
lthumb 3.5813 60.2626
rfemur -39.3078 -7.74364 17.6708
rtibia 61.0408
rfoot -6.05571 -6.12094
rtoes -43.9571
lfemur -23.3362 27.2134 -24.8454
ltibia 40.7406
lfoot -21.6737 8.89106
ltoes -12.5944
84
root -6.18961 15.8677 4.40642 217.854 83.561 -148.405
lowerback 17.1483 -0.140748 -5.43722
upperback 10.7055 -0.120078 -0.500124
thorax 1.91436 0.017254 2.56408
lowerneck -2.6492 8.09276 -11.4123
upperneck 4.75863 11.064 5.13187
head 1.01812 5.4306 3.76033
rclavicle 1.90833e-014 3.49861e-014
rhumerus 11.4399 21.7337 -76.8123
rradius 110.874
rwrist -27.6892
rhand -23.5129 46.7252
rfingers 7.12502
rthumb 2.94775 16.7658
lclavicle 1.90833e-014 3.49861e-014
lhumerus 31.7144 -26.0682 56.7861
lradius 106.628
lwrist 36.2465
lhand -23.2715 30.1638
lfingers 7.12502
lthumb 3.18089 60.1198
rfemur -38.2536 -8.11922 17.001
rtibia 62.9812
rfoot -6.0726 -5.99494
rtoes -44.5356
lfemur -23.5187 27.6842 -25.271
ltibia 40.0852
lfoot -21.4181 9.37975
ltoes -11.8419
